<svg xmlns="http://www.w3.org/2000/svg" viewBox="0 0 64 64" role="img" aria-labelledby="title desc">
  <title id="title">Bắp con học lái</title>
  <desc id="desc">Một dấu chân mèo màu hồng dễ thương</desc>
  <defs>
    <linearGradient id="bg" x1="8" y1="4" x2="56" y2="60" gradientUnits="userSpaceOnUse">
      <stop stop-color="#ffd9e8"/>
      <stop offset="1" stop-color="#e7d9fb"/>
    </linearGradient>
    <linearGradient id="paw" x1="20" y1="18" x2="45" y2="49" gradientUnits="userSpaceOnUse">
      <stop stop-color="#ff94ba"/>
      <stop offset="1" stop-color="#e3679b"/>
    </linearGradient>
  </defs>
  <rect width="64" height="64" rx="19" fill="url(#bg)"/>
  <path d="M48 15.5l1.45 3.6 3.55 1.45-3.55 1.45L48 25.6l-1.45-3.6L43 20.55l3.55-1.45L48 15.5Z" fill="#fff" opacity=".9"/>
  <path d="M20.6 33.2c1.4-5.6 5.5-8.8 11.4-8.8s10 3.2 11.4 8.8c1.1 4.5-1.7 10.6-6.5 11.8-2.2.55-3.4-.85-4.9-.85s-2.7 1.4-4.9.85c-4.8-1.2-7.6-7.3-6.5-11.8Z" fill="url(#paw)" stroke="#c95d88" stroke-width="1.6"/>
  <ellipse cx="20.7" cy="24.2" rx="4.2" ry="6.2" transform="rotate(-25 20.7 24.2)" fill="#ff9fc1" stroke="#c95d88" stroke-width="1.5"/>
  <ellipse cx="29.1" cy="18.9" rx="4.3" ry="6.5" transform="rotate(-8 29.1 18.9)" fill="#ff9fc1" stroke="#c95d88" stroke-width="1.5"/>
  <ellipse cx="38.4" cy="18.9" rx="4.3" ry="6.5" transform="rotate(8 38.4 18.9)" fill="#ff9fc1" stroke="#c95d88" stroke-width="1.5"/>
  <ellipse cx="46.8" cy="24.2" rx="4.2" ry="6.2" transform="rotate(25 46.8 24.2)" fill="#ff9fc1" stroke="#c95d88" stroke-width="1.5"/>
  <path d="M31.9 35.1c.9-.9 2.3-.9 3.2 0l1.8 1.8c.9.9.9 2.4 0 3.3l-1.8 1.8c-.9.9-2.3.9-3.2 0l-1.8-1.8c-.9-.9-.9-2.4 0-3.3l1.8-1.8Z" fill="#ffd8e6"/>
</svg>
